<?xml version="1.0" encoding="utf-8"?>
<!-- Generator: Adobe Illustrator 15.0.0, SVG Export Plug-In . SVG Version: 6.00 Build 0)  -->
<!DOCTYPE svg PUBLIC "-//W3C//DTD SVG 1.1//EN" "http://www.w3.org/Graphics/SVG/1.1/DTD/svg11.dtd">
<svg version="1.1" id="Layer_1" xmlns="http://www.w3.org/2000/svg" xmlns:xlink="http://www.w3.org/1999/xlink" x="0px" y="0px"
	 width="500px" height="500px" viewBox="0 0 500 500" enable-background="new 0 0 500 500" xml:space="preserve">
<g>
	<path fill="#010101" d="M70.716,288.747l2.307,3.67l24.758,39.081c0,0,4.224-4.339,12.796-10.574
		c30.201,4.467,61.146,7.177,92.063,8.006c91.007,2.444,160.913-11.766,187.635-18.249c2.478,2.261,4.835,4.672,7.033,7.253
		l28.484-41.494C244.738,178.782,70.716,288.748,70.716,288.747z M202.795,323.174c-28.602-0.771-57.218-3.155-85.244-7.064
		c28.136-18.461,86.737-46.032,178.554-38.346c0,0,53.494,1.066,88.682,28.308C355.83,312.811,288.903,325.486,202.795,323.174z"/>
	<path fill="#010101" d="M165.28,240.933c15.842-4.174,33.335-7.57,52.294-9.579c5.351-24.283-10.601-42.095-23.278-52.011
		c-18.327,5.753-36.594,14.175-54.193,25.989C150.061,210.109,166.376,221.022,165.28,240.933z"/>
	<path fill="#010101" d="M284.33,230.644c17.609,1.498,36.044,4.461,55.145,9.078c16.102-29.662-7.031-56.447-17.604-66.494
		c-16.247-2.793-34.34-4.713-53.479-4.727C279.841,181.238,294.953,204.509,284.33,230.644z"/>
	<path fill="#010101" d="M96.886,243.58c-10.367,11.82-20.247,25.266-29.411,40.742c0,0,17.862-13.344,49.526-26.891
		C113.865,249.844,104.318,245.702,96.886,243.58z"/>
	<path fill="#010101" d="M122.365,255.225c10.899-4.447,23.214-8.827,36.913-12.69c2.37-20.369-16.528-30.21-24.666-33.44
		c-11.556,8.287-22.76,18.157-33.474,29.741C109.301,241.525,118.819,246.486,122.365,255.225z"/>
	<path fill="#010101" d="M223.565,230.736c17.131-1.516,35.429-1.804,54.689-0.497c12.131-26.951-7.033-51.049-17.695-61.668
		c-19.27,0.529-39.432,3.162-59.629,8.809C213.823,188.371,228.079,206.493,223.565,230.736z"/>
	<path fill="#010101" d="M432.458,260.896c-0.767-4.416-2.087-48.547-48.504-70.541c10.665,15.119,21.752,39.905,5.512,64.979
		c11.988,4.628,24.169,9.931,36.56,16.054C426.024,271.387,433.289,265.727,432.458,260.896z"/>
	<path fill="#010101" d="M345.21,241.159c12.612,3.255,25.51,7.255,38.681,12.12c18.749-27.583-0.206-55.342-10.623-67.278
		c-1.185-0.415-2.355-0.834-3.595-1.225c-10.268-3.208-23.249-6.761-38.084-9.738C343.627,188.563,359.377,213.53,345.21,241.159z"
		/>
</g>
</svg>
